<svg xmlns="http://www.w3.org/2000/svg" width="25" height="12" viewBox="0 0 25 12" fill="none">
<path opacity="0.35" d="M19.5053 1.01721H3.83866C2.3659 1.01721 1.172 2.21112 1.172 3.68388V8.68388C1.172 10.1566 2.3659 11.3505 3.83866 11.3505H19.5053C20.9781 11.3505 22.172 10.1566 22.172 8.68388V3.68388C22.172 2.21112 20.9781 1.01721 19.5053 1.01721Z" stroke="#333333"/>
<path opacity="0.4" d="M23.672 4.18372V8.18372C24.4767 7.84494 25 7.05685 25 6.18372C25 5.31058 24.4767 4.52249 23.672 4.18372Z" fill="#333333"/>
<path d="M19.3387 2.51721H4.00533C3.26895 2.51721 2.672 3.11417 2.672 3.85055V8.51721C2.672 9.25359 3.26895 9.85055 4.00533 9.85055H19.3387C20.075 9.85055 20.672 9.25359 20.672 8.51721V3.85055C20.672 3.11417 20.075 2.51721 19.3387 2.51721Z" fill="#333333"/>
</svg>