<svg xmlns="http://www.w3.org/2000/svg" width="18" height="11" viewBox="0 0 18 11" fill="none">
<path d="M1.89966 6.68388H2.89966C3.45194 6.68388 3.89966 7.1316 3.89966 7.68388V9.68388C3.89966 10.2362 3.45194 10.6839 2.89966 10.6839H1.89966C1.34737 10.6839 0.899658 10.2362 0.899658 9.68388V7.68388C0.899658 7.1316 1.34737 6.68388 1.89966 6.68388ZM6.56635 4.68388H7.56635C8.11863 4.68388 8.56635 5.1316 8.56635 5.68388V9.68388C8.56635 10.2362 8.11863 10.6839 7.56635 10.6839H6.56635C6.01406 10.6839 5.56635 10.2362 5.56635 9.68388V5.68388C5.56635 5.1316 6.01406 4.68388 6.56635 4.68388ZM11.233 2.35055H12.233C12.7853 2.35055 13.233 2.79826 13.233 3.35055V9.68388C13.233 10.2362 12.7853 10.6839 12.233 10.6839H11.233C10.6807 10.6839 10.233 10.2362 10.233 9.68388V3.35055C10.233 2.79826 10.6807 2.35055 11.233 2.35055ZM15.8997 0.0172138H16.8997C17.4519 0.0172138 17.8997 0.464929 17.8997 1.01721V9.68388C17.8997 10.2362 17.4519 10.6839 16.8997 10.6839H15.8997C15.3474 10.6839 14.8997 10.2362 14.8997 9.68388V1.01721C14.8997 0.464929 15.3474 0.0172138 15.8997 0.0172138Z" fill="#333333"/>
</svg>