<svg xmlns="http://www.w3.org/2000/svg" width="17" height="11" viewBox="0 0 17 11" fill="none">
<path d="M8.53626 2.29454C10.7522 2.29464 12.8833 3.14608 14.4893 4.67288C14.6102 4.79075 14.8035 4.78926 14.9226 4.66954L16.0786 3.50288C16.1389 3.44215 16.1725 3.3599 16.172 3.27432C16.1715 3.18874 16.1369 3.10689 16.0759 3.04687C11.8608 -0.992673 5.21105 -0.992673 0.995948 3.04687C0.934889 3.10684 0.900235 3.18867 0.899665 3.27425C0.899109 3.35983 0.932663 3.44211 0.992927 3.50288L2.14927 4.66954C2.2683 4.78944 2.46176 4.79093 2.58262 4.67288C4.18877 3.14598 6.32015 2.29454 8.53626 2.29454ZM8.53626 6.09021C9.75375 6.09014 10.9278 6.54267 11.8303 7.35988C11.9523 7.47586 12.1446 7.47334 12.2636 7.35421L13.4183 6.18754C13.4791 6.12635 13.5128 6.04333 13.512 5.95707C13.5111 5.8708 13.4757 5.78849 13.4136 5.72854C10.6654 3.17216 6.40946 3.17216 3.66126 5.72854C3.59918 5.78849 3.56376 5.87084 3.56293 5.95713C3.56213 6.04343 3.59599 6.12643 3.65693 6.18754L4.81129 7.35421C4.93028 7.47334 5.12254 7.47586 5.24461 7.35988C6.14648 6.54321 7.31958 6.09071 8.53626 6.09021ZM10.7553 8.87454C10.817 8.81394 10.851 8.73053 10.8493 8.64403C10.8475 8.55752 10.8101 8.47558 10.7459 8.41754C9.47038 7.33866 7.60218 7.33866 6.32661 8.41754C6.26238 8.47553 6.22495 8.55745 6.22312 8.64395C6.22129 8.73046 6.25522 8.81389 6.31693 8.87454L8.31461 10.8902C8.37316 10.9494 8.45297 10.9828 8.53626 10.9828C8.61955 10.9828 8.69939 10.9494 8.75794 10.8902L10.7553 8.87454Z" fill="#333333"/>
</svg>